<svg width="338.4" height="85.44599999999998" viewBox="0 0 320 80.8" class="looka-1j8o68f"><defs id="SvgjsDefs1663"></defs><g id="SvgjsG1664" featurekey="G09qjj-0" transform="matrix(0.8,0,0,0.8,0,0)" fill="#a6acec"><title xmlns="http://www.w3.org/2000/svg">community</title><desc xmlns="http://www.w3.org/2000/svg">Created with Sketch.</desc><g xmlns="http://www.w3.org/2000/svg" stroke="none" stroke-width="1" fill="none" fill-rule="evenodd"><g fill="#a6acec"><path d="M49.9894066,70.612594 C61.3792785,70.612594 70.612594,61.3792785 70.612594,49.9894066 C70.612594,38.5995348 61.3792785,29.3662193 49.9894066,29.3662193 C38.5995348,29.3662193 29.3662193,38.5995348 29.3662193,49.9894066 C29.3662193,61.3792785 38.5995348,70.612594 49.9894066,70.612594 L49.9894066,70.612594 Z M61.1142011,17.1318535 C56.3063141,21.9952963 53.236347,22.2732407 50.0109902,22.2732407 C46.7856334,22.2732407 43.7391877,21.9952963 38.8994135,17.1318535 C34.0596394,12.2684108 32.4902852,7.49775813 32.4902852,7.49775813 C32.4902852,7.49775813 40.4569262,16.7252462 50.0109902,16.7252466 C59.5650542,16.7252469 67.4750713,7.49775813 67.4750713,7.49775813 C67.4750713,7.49775813 65.9220881,12.2684108 61.1142011,17.1318535 L61.1142011,17.1318535 Z M49.9609433,11.9481913 C53.2603453,11.9481913 55.935039,9.27349759 55.935039,5.97409566 C55.935039,2.67469373 53.2603453,0 49.9609433,0 C46.6615414,0 43.9868477,2.67469373 43.9868477,5.97409566 C43.9868477,9.27349759 46.6615414,11.9481913 49.9609433,11.9481913 L49.9609433,11.9481913 Z M38.8511554,82.8681465 C43.6590424,78.0047037 46.7290095,77.7267593 49.9543663,77.7267593 C53.1797232,77.7267593 56.2261689,78.0047037 61.065943,82.8681465 C65.9057171,87.7315892 67.4750713,92.5022419 67.4750713,92.5022419 C67.4750713,92.5022419 59.5084304,83.2747538 49.9543663,83.2747534 C40.4003023,83.2747531 32.4902852,92.5022419 32.4902852,92.5022419 C32.4902852,92.5022419 34.0432684,87.7315892 38.8511554,82.8681465 L38.8511554,82.8681465 Z M50.0044132,88.0518087 C46.7050113,88.0518087 44.0303175,90.7265024 44.0303175,94.0259043 C44.0303175,97.3253063 46.7050113,100 50.0044132,100 C53.3038151,100 55.9785088,97.3253063 55.9785088,94.0259043 C55.9785088,90.7265024 53.3038151,88.0518087 50.0044132,88.0518087 L50.0044132,88.0518087 Z M81.1085618,34.6035423 C74.269899,34.6428261 71.902568,32.668568 69.6218963,30.3878963 C67.3412247,28.1072246 65.3835987,25.7565258 65.4003349,18.8953153 C65.4170711,12.0341049 67.680731,7.55104306 67.680731,7.55104306 C67.680731,7.55104306 66.7891774,19.7091283 73.5449206,26.464872 C80.3006639,33.2206157 92.4187105,32.2890225 92.4187105,32.2890225 C92.4187105,32.2890225 87.9472247,34.5642584 81.1085618,34.6035423 L81.1085618,34.6035423 Z M76.8874203,23.0515954 C79.2204498,25.3846249 83.003038,25.3846249 85.3360674,23.0515954 C87.6690969,20.7185659 87.6690969,16.9359777 85.3360674,14.6029483 C83.003038,12.2699188 79.2204498,12.2699188 76.8874203,14.6029483 C74.5543909,16.9359777 74.5543909,20.7185659 76.8874203,23.0515954 L76.8874203,23.0515954 Z M82.8681465,61.1142011 C78.0047037,56.3063141 77.7267593,53.236347 77.7267593,50.0109902 C77.7267593,46.7856334 78.0047037,43.7391877 82.8681465,38.8994135 C87.7315892,34.0596394 92.5022419,32.4902852 92.5022419,32.4902852 C92.5022419,32.4902852 83.2747538,40.4569262 83.2747534,50.0109902 C83.2747531,59.5650542 92.5022419,67.4750713 92.5022419,67.4750713 C92.5022419,67.4750713 87.7315892,65.9220881 82.8681465,61.1142011 L82.8681465,61.1142011 Z M88.0518087,49.9609433 C88.0518087,53.2603453 90.7265024,55.935039 94.0259043,55.935039 C97.3253063,55.935039 100,53.2603453 100,49.9609433 C100,46.6615414 97.3253063,43.9868477 94.0259043,43.9868477 C90.7265024,43.9868477 88.0518087,46.6615414 88.0518087,49.9609433 L88.0518087,49.9609433 Z M17.1318535,38.8511554 C21.9952963,43.6590424 22.2732407,46.7290095 22.2732407,49.9543663 C22.2732407,53.1797232 21.9952963,56.2261689 17.1318535,61.065943 C12.2684108,65.9057171 7.49775813,67.4750713 7.49775813,67.4750713 C7.49775813,67.4750713 16.7252462,59.5084304 16.7252466,49.9543663 C16.7252469,40.4003023 7.49775813,32.4902852 7.49775813,32.4902852 C7.49775813,32.4902852 12.2684108,34.0432684 17.1318535,38.8511554 L17.1318535,38.8511554 Z M11.9481913,50.0044132 C11.9481913,46.7050113 9.27349759,44.0303175 5.97409566,44.0303175 C2.67469373,44.0303175 0,46.7050113 0,50.0044132 C0,53.3038151 2.67469373,55.9785088 5.97409566,55.9785088 C9.27349759,55.9785088 11.9481913,53.3038151 11.9481913,50.0044132 L11.9481913,50.0044132 Z M34.6035423,18.8611917 C34.6428261,25.6998545 32.668568,28.0671855 30.3878963,30.3478572 C28.1072246,32.6285289 25.7565258,34.5861548 18.8953153,34.5694186 C12.0341049,34.5526824 7.55104306,32.2890225 7.55104306,32.2890225 C7.55104306,32.2890225 19.7091283,33.1805761 26.464872,26.4248329 C33.2206157,19.6690897 32.2890225,7.55104306 32.2890225,7.55104306 C32.2890225,7.55104306 34.5642584,12.0225289 34.6035423,18.8611917 L34.6035423,18.8611917 Z M23.0515954,23.0823332 C25.3846249,20.7493037 25.3846249,16.9667156 23.0515954,14.6336861 C20.7185659,12.3006566 16.9359777,12.3006566 14.6029483,14.6336861 C12.2699188,16.9667156 12.2699188,20.7493037 14.6029483,23.0823332 C16.9359777,25.4153627 20.7185659,25.4153627 23.0515954,23.0823332 L23.0515954,23.0823332 Z M65.3662113,81.1085618 C65.3269274,74.269899 67.3011856,71.902568 69.5818572,69.6218963 C71.8625289,67.3412247 74.2132277,65.3835987 81.0744382,65.4003349 C87.9356486,65.4170711 92.4187105,67.680731 92.4187105,67.680731 C92.4187105,67.680731 80.2606252,66.7891774 73.5048815,73.5449206 C66.7491378,80.3006639 67.680731,92.4187105 67.680731,92.4187105 C67.680731,92.4187105 65.4054951,87.9472247 65.3662113,81.1085618 L65.3662113,81.1085618 Z M76.9181582,76.8874203 C74.5851287,79.2204498 74.5851287,83.003038 76.9181582,85.3360674 C79.2511876,87.6690969 83.0337758,87.6690969 85.3668053,85.3360674 C87.6998347,83.003038 87.6998347,79.2204498 85.3668053,76.8874203 C83.0337758,74.5543909 79.2511876,74.5543909 76.9181582,76.8874203 L76.9181582,76.8874203 Z M18.8431163,65.3662113 C25.6817792,65.3269274 28.0491102,67.3011856 30.3297818,69.5818572 C32.6104535,71.8625289 34.5680795,74.2132277 34.5513433,81.0744382 C34.534607,87.9356486 32.2709472,92.4187105 32.2709472,92.4187105 C32.2709472,92.4187105 33.1625008,80.2606252 26.4067575,73.5048815 C19.6510143,66.7491378 7.5329677,67.680731 7.5329677,67.680731 C7.5329677,67.680731 12.0044535,65.4054951 18.8431163,65.3662113 L18.8431163,65.3662113 Z M23.0642578,76.9181582 C20.7312284,74.5851287 16.9486402,74.5851287 14.6156107,76.9181582 C12.2825813,79.2511876 12.2825813,83.0337758 14.6156107,85.3668053 C16.9486402,87.6998347 20.7312284,87.6998347 23.0642578,85.3668053 C25.3972873,83.0337758 25.3972873,79.2511876 23.0642578,76.9181582 L23.0642578,76.9181582 Z"></path></g></g></g><g id="SvgjsG1665" featurekey="0yvIkK-0" transform="matrix(4.990925814433144,0,0,4.990925814433144,94.70961892228394,-24.35026641871134)" fill="#a56cc1"><path d="M5.98 5.48 q2.46 0 3.86 1.78 l-1.14 0.82 q-1.04 -1.4 -2.76 -1.4 q-1.4 0 -2.27 0.72 t-0.91 1.96 q0 1.08 0.66 1.75 t2.3 1.13 q2.16 0.64 2.88 1.13 t1.09 1.21 t0.37 1.8 q0 1.72 -1.23 2.83 t-3.17 1.15 q-3.06 0 -4.6 -2.14 l1.26 -0.84 q1.06 1.76 3.24 1.78 q1.42 0 2.3 -0.79 t0.88 -1.99 q0 -0.7 -0.25 -1.15 t-0.76 -0.78 t-1.3 -0.6 t-1.85 -0.63 q-1.6 -0.52 -2.37 -1.46 t-0.77 -2.4 q0 -1.72 1.29 -2.8 t3.25 -1.08 z M13.46 12.92 q0 2.7 1.66 4.45 t4.34 1.79 q2.7 0 4.34 -1.77 t1.66 -4.47 q0 -2.74 -1.64 -4.47 t-4.38 -1.77 q-2.68 0 -4.32 1.76 t-1.66 4.48 z M19.46 5.48 q2.16 0 3.82 0.95 t2.57 2.66 t0.93 3.83 q0 3.26 -2.06 5.33 t-5.26 2.11 q-3.22 0 -5.24 -2.09 t-2.08 -5.35 q0.02 -3.26 2.04 -5.32 t5.28 -2.12 z M36.14 5.48 q3.14 0 4.88 2.22 l-1.08 0.9 q-0.6 -0.9 -1.6 -1.41 t-2.2 -0.51 q-2.64 0 -4.3 1.74 t-1.7 4.5 q0 2.74 1.67 4.47 t4.33 1.77 q1.14 0 2.32 -0.57 t1.86 -1.63 l1.08 0.82 q-1.88 2.58 -5.26 2.58 q-3.28 -0.02 -5.27 -2.12 t-2.05 -5.32 q0 -3.26 2.05 -5.33 t5.27 -2.11 z M45.14 5.84 l0 14.16 l-1.32 0 l0 -14.16 l1.32 0 z"></path></g></svg>